# xmcd
#
# Track frame offsets:
#  150
#  18859
#  36975
#  56860
#  80842
#  105385
#  128351
#  151236
#  167584
#  187905
#  209441
#  229157
#  247966
#
# Disc length: 3571 seconds
#
# Revision: 0
# Processed by: cddbd v1.5.1PL0 Copyright (c) Steve Scherf et al.
# Submitted via: Collectorz.com_Music_Collector 6.9
#
DISCID=9e0df10d
DTITLE=Lou Pride - Keep On Believing
DYEAR=2005
DGENRE=Blues -  Blues Soul
TTITLE0=Midnight Call
TTITLE1=Waiting In Vain
TTITLE2=I Can't Hold It
TTITLE3=I'm Com'un Home In The Morn'un
TTITLE4=Love Will Make It Alright
TTITLE5=I Want To Hold Your Hand
TTITLE6=Another Broken Heart
TTITLE7=Real Deal
TTITLE8=Sunrise
TTITLE9=Without Your Love
TTITLE10=I Wanna Be The Man You Want
TTITLE11=Layin' Eggs
TTITLE12=Hold On To Your Dream
EXTD=
EXTT0=
EXTT1=
EXTT2=
EXTT3=
EXTT4=
EXTT5=
EXTT6=
EXTT7=
EXTT8=
EXTT9=
EXTT10=
EXTT11=
EXTT12=
PLAYORDER=
